<svg xmlns="http://www.w3.org/2000/svg" viewBox="0 0 496 512" fill="currentColor">
  <path d="M248 8C111 8 0 119 0 256s111 248 248 248 248-111 248-248S385 8 248 8zm93.4 80.6c22.2 24.6 39.5 54.5 50.1 87.4H324c-8-34.8-19.6-65.5-34.6-87.4zm-186.8 0c-15 21.9-26.6 52.6-34.6 87.4H104c10.6-32.9 27.9-62.8 50.6-87.4zM248 48c32.5 0 65.7 35.7 84.3 96H163.7C182.3 83.7 215.5 48 248 48zM48 256c0-21.2 2.4-41.8 6.9-61.4H138c-2.6 20.2-4 40.8-4 61.4s1.4 41.2 4 61.4H54.9C50.4 297.8 48 277.2 48 256zm200 208c-32.5 0-65.7-35.7-84.3-96h168.6c-18.6 60.3-51.8 96-84.3 96zm93.4-80.6c-22.2-24.6-39.5-54.5-50.1-87.4h67.5c-10.6 32.9-27.9 62.8-50.6 87.4zM358 256c0 20.6-1.4 41.2-4 61.4h83.1c4.5-19.6 6.9-40.2 6.9-61.4s-2.4-41.8-6.9-61.4H354c2.6 20.2 4 40.8 4 61.4z"/>
</svg>

