<svg xmlns="http://www.w3.org/2000/svg" viewBox="0 0 448 512" fill="currentColor">
  <path d="M224.1 141c-63.6 0-114.9 51.3-114.9 114.9S160.5 370.8 224.1 370.8 339 319.5 339 255.9 287.7 141 224.1 141zm0 189.6c-41.2 0-74.7-33.5-74.7-74.7s33.5-74.7 74.7-74.7 74.7 33.5 74.7 74.7-33.5 74.7-74.7 74.7zm146.4-194.3c0 14.9-12 26.9-26.9 26.9s-26.9-12-26.9-26.9 12-26.9 26.9-26.9 26.9 12 26.9 26.9zm76.1 27.2c-1.7-35.7-9.9-67.3-36.3-93.7S358.4 34.3 322.7 32.6c-35.7-2-142.8-2-178.5 0-35.7 1.7-67.3 9.9-93.7 36.3S34.3 153.6 32.6 189.3c-2 35.7-2 142.8 0 178.5 1.7 35.7 9.9 67.3 36.3 93.7s58 34.6 93.7 36.3c35.7 2 142.8 2 178.5 0 35.7-1.7 67.3-9.9 93.7-36.3s34.6-58 36.3-93.7c2-35.7 2-142.8 0-178.5z"/>
</svg>
